{
  "asset": {
    "generator": "glTF-Transform v3.10.0",
    "version": "2.0"
  },
  "accessors": [
    {
      "type": "SCALAR",
      "componentType": 5123,
      "count": 3456,
      "bufferView": 0,
      "byteOffset": 0
    },
    {
      "type": "VEC3",
      "componentType": 5126,
      "count": 637,
      "max": [
        1.399999976158142,
        1.399999976158142,
        0.4000000059604645
      ],
      "min": [
        -1.399999976158142,
        -1.399999976158142,
        -0.4000000059604645
      ],
      "bufferView": 1,
      "byteOffset": 0
    },
    {
      "type": "VEC2",
      "componentType": 5126,
      "count": 637,
      "bufferView": 1,
      "byteOffset": 12
    }
  ],
  "bufferViews": [
    {
      "buffer": 0,
      "byteOffset": 0,
      "byteLength": 6912,
      "target": 34963
    },
    {
      "buffer": 0,
      "byteOffset": 6912,
      "byteLength": 12740,
      "byteStride": 20,
      "target": 34962
    }
  ],
  "buffers": [
    {
      "uri": "torus.bin",
      "byteLength": 19652
    }
  ],
  "materials": [
    {
      "pbrMetallicRoughness": {
        "baseColorFactor": [
          0.6938717612856897,
          0.12743768042608497,
          0.09989872823822872,
          1
        ],
        "metallicFactor": 0
      }
    }
  ],
  "meshes": [
    {
      "name": "torus",
      "primitives": [
        {
          "attributes": {
            "POSITION": 1,
            "TEXCOORD_0": 2,
            "TEXCOORD_1": 2,
            "TEXCOORD_2": 2,
            "TEXCOORD_3": 2,
            "TEXCOORD_4": 2,
            "TEXCOORD_5": 2
          },
          "mode": 4,
          "material": 0,
          "indices": 0
        }
      ]
    }
  ],
  "nodes": [
    {
      "name": "MyNode",
      "mesh": 0
    }
  ],
  "scenes": [
    {
      "name": "MyScene",
      "nodes": [
        0
      ]
    }
  ]
}